<svg width="31" height="30" viewBox="0 0 31 30" fill="none" xmlns="http://www.w3.org/2000/svg">
<circle cx="15.5088" cy="15" r="14.7" fill="#50AF95" stroke="#1F1E19" stroke-width="0.6"/>
<path fill-rule="evenodd" clip-rule="evenodd" d="M17.9624 15.6759C17.8514 15.6843 17.2777 15.7185 15.998 15.7185C14.9802 15.7185 14.2575 15.688 14.004 15.6759C10.0705 15.5029 7.13447 14.8182 7.13447 13.9984C7.13447 13.1785 10.0705 12.4947 14.004 12.3189V14.994C14.2612 15.0125 14.9977 15.056 16.0156 15.056C17.237 15.056 17.8486 15.0051 17.9587 14.9949V12.3208C21.8839 12.4957 24.8134 13.1804 24.8134 13.9984C24.8134 14.8163 21.8848 15.5011 17.9587 15.675L17.9624 15.6759ZM17.9624 12.0441V9.65034H23.4402V6H8.52613V9.65034H14.003V12.0432C9.55137 12.2477 6.20361 13.1295 6.20361 14.1862C6.20361 15.2429 9.55137 16.1238 14.003 16.3292V24H17.9615V16.3264C22.403 16.1219 25.7452 15.241 25.7452 14.1853C25.7452 13.1295 22.4057 12.2486 17.9615 12.0432L17.9624 12.0441Z" fill="white"/>
</svg>
