<svg width="52" height="24" viewBox="0 0 52 24" fill="none" xmlns="http://www.w3.org/2000/svg">
<rect width="52" height="24" rx="5" fill="url(#paint0_linear_4002_1042)"/>
<g clip-path="url(#clip0_4002_1042)">
<path d="M14.0613 10.1985C14.0613 10.6403 13.9748 11.0125 13.8017 11.3153C13.6286 11.6181 13.3954 11.8622 13.1019 12.0474C12.8084 12.2326 12.4698 12.368 12.086 12.4535C11.7023 12.539 11.3034 12.5818 10.8896 12.5818H10.5111C10.1902 12.5818 9.93014 12.8278 9.93014 13.1314V15.0688C9.93014 15.2711 9.75674 15.4352 9.54284 15.4352H8V8.41839C8 8.11485 8.2601 7.86877 8.58096 7.86877H10.9347C11.3712 7.86877 11.7794 7.90974 12.1594 7.99168C12.5394 8.07361 12.8705 8.20542 13.1527 8.3871C13.4349 8.56877 13.6569 8.80745 13.8186 9.10313C13.9804 9.3988 14.0613 9.76394 14.0613 10.1985ZM12.1442 10.2147C12.1442 10.0373 12.1064 9.8919 12.031 9.7784C11.9555 9.66489 11.8536 9.57621 11.7253 9.51236C11.597 9.44852 11.4517 9.40595 11.2894 9.38467C11.1271 9.36339 10.9592 9.35274 10.7856 9.35274H10.3238C10.1099 9.35274 9.93652 9.51679 9.93652 9.71916V11.1298H10.7517C10.9328 11.1298 11.1064 11.1157 11.2724 11.0873C11.4385 11.0589 11.5875 11.0092 11.7196 10.9383C11.8517 10.8674 11.9555 10.7734 12.031 10.6563C12.1064 10.5393 12.1442 10.392 12.1442 10.2147Z" fill="#E1DBE3"/>
<path d="M18.4318 15.4365V14.6996H18.4092C18.3415 14.8207 18.253 14.9346 18.1439 15.0414C18.0348 15.1481 17.9069 15.2407 17.7601 15.319C17.6134 15.3973 17.4516 15.4614 17.2747 15.5112C17.0979 15.5611 16.9116 15.586 16.716 15.586C16.3397 15.586 16.0218 15.5219 15.7621 15.3938C15.5025 15.2656 15.2918 15.1001 15.13 14.8972C14.9682 14.6943 14.8516 14.4629 14.7801 14.203C14.7086 13.9432 14.6729 13.678 14.6729 13.4075V10.6679C14.6729 10.3644 14.933 10.1183 15.2538 10.1183H16.5354V13.0016C16.5354 13.1512 16.5467 13.2935 16.5692 13.4288C16.5918 13.5641 16.6351 13.6851 16.6991 13.7919C16.763 13.8987 16.8477 13.9823 16.953 14.0429C17.0584 14.1034 17.1976 14.1336 17.3707 14.1336C17.6943 14.1336 17.9407 14.0197 18.1101 13.7919C18.2794 13.5641 18.364 13.2971 18.364 12.991V10.6679C18.364 10.3644 18.6241 10.1183 18.945 10.1183H20.2153V14.8869C20.2153 15.1904 19.9552 15.4365 19.6343 15.4365H18.4318Z" fill="#E1DBE3"/>
<path d="M21.1094 15.4366V7.91278C21.1094 7.60923 21.3695 7.36316 21.6903 7.36316H22.9832V14.8869C22.9832 15.1905 22.7231 15.4366 22.4022 15.4366H21.1094Z" fill="#E1DBE3"/>
<path d="M27.128 11.4284C27.0717 11.3949 27.0203 11.3675 26.9738 11.3464C26.7706 11.2538 26.5561 11.2075 26.3303 11.2075C26.1573 11.2075 25.9973 11.2396 25.8506 11.3036C25.7039 11.3677 25.6305 11.4781 25.6305 11.6347C25.6305 11.7842 25.7114 11.891 25.8732 11.9551C26.035 12.0191 26.2965 12.0903 26.6577 12.1686C26.8684 12.2114 27.081 12.2719 27.2955 12.3502C27.5099 12.4285 27.7037 12.5317 27.8768 12.6599C28.0499 12.788 28.1891 12.9447 28.2945 13.1298C28.3998 13.3149 28.4525 13.5356 28.4525 13.7919C28.4525 14.1265 28.381 14.4095 28.238 14.6409C28.095 14.8722 27.9088 15.0591 27.6793 15.2015C27.4497 15.3439 27.192 15.4471 26.906 15.5112C26.6201 15.5753 26.3341 15.6073 26.0481 15.6073C25.5891 15.6073 25.1394 15.5379 24.6992 15.3991C24.259 15.2602 23.8921 15.0556 23.5986 14.785L24.2675 14.1178C24.4662 13.9195 24.7887 13.8895 25.0245 14.0473C25.1059 14.1017 25.18 14.1448 25.2467 14.1763C25.4875 14.2902 25.7434 14.3472 26.0143 14.3472C26.1648 14.3472 26.3134 14.3134 26.4601 14.2457C26.6069 14.1781 26.6803 14.0588 26.6803 13.888C26.6803 13.7242 26.59 13.6032 26.4094 13.5249C26.2287 13.4466 25.9465 13.3647 25.5628 13.2793C25.3671 13.2366 25.1714 13.1796 24.9758 13.1084C24.7801 13.0372 24.6051 12.9411 24.4509 12.8201C24.2966 12.699 24.1706 12.5495 24.0727 12.3715C23.9749 12.1936 23.926 11.98 23.926 11.7308C23.926 11.4104 23.9975 11.1381 24.1405 10.9138C24.2834 10.6896 24.4678 10.5063 24.6936 10.3639C24.9193 10.2215 25.1696 10.1165 25.4442 10.0488C25.7189 9.9812 25.9917 9.94739 26.2626 9.94739C26.684 9.94739 27.096 10.0097 27.4986 10.1343C27.9013 10.2589 28.2418 10.4457 28.5202 10.6949L27.8548 11.3454C27.6638 11.5322 27.3605 11.5668 27.128 11.4284Z" fill="#E1DBE3"/>
<path d="M33.1146 11.8866C33.1052 11.8378 33.0996 11.8111 33.0979 11.8065C33.0503 11.677 32.9703 11.5735 32.8982 11.5001C32.695 11.2932 32.4372 11.2031 32.0685 11.2031C31.8878 11.2031 31.7223 11.2296 31.5717 11.2826C31.4212 11.3357 31.2895 11.4081 31.1766 11.5001C31.0638 11.592 30.9734 11.6998 30.9057 11.8236C30.838 11.9473 30.8003 12.0764 30.7928 12.2107H32.8288C32.9892 12.2107 33.1193 12.0877 33.1193 11.9359C33.1193 11.9194 33.1177 11.9029 33.1146 11.8866ZM34.8095 12.6695C34.8095 12.6798 34.8095 12.6902 34.8095 12.7005C34.8095 13.0041 34.5494 13.2502 34.2285 13.2502H30.7281C30.7432 13.3997 30.7903 13.535 30.8694 13.656C30.9486 13.7771 31.0503 13.8821 31.1747 13.9711C31.2991 14.0602 31.4385 14.1296 31.593 14.1794C31.7475 14.2293 31.9077 14.2542 32.0735 14.2542C32.3675 14.2542 32.6162 14.2026 32.8197 14.0993C32.9047 14.0562 33.0015 13.9877 33.1102 13.8938C33.2389 13.7825 33.4304 13.7664 33.5779 13.8544L34.606 14.4678C34.3422 14.831 33.9936 15.1105 33.5602 15.3063C33.1268 15.5021 32.6237 15.6 32.0509 15.6C31.6288 15.6 31.2293 15.5377 30.8525 15.4131C30.4756 15.2885 30.1459 15.1069 29.8632 14.8684C29.5806 14.6298 29.3582 14.3361 29.1962 13.9872C29.0341 13.6382 28.9531 13.2395 28.9531 12.7909C28.9531 12.3565 29.0323 11.9631 29.1905 11.6106C29.3488 11.2581 29.5636 10.959 29.835 10.7134C30.1063 10.4677 30.4266 10.2772 30.796 10.1419C31.1653 10.0066 31.5647 9.93896 31.9944 9.93896C32.4089 9.93896 32.7895 10.0048 33.1362 10.1366C33.483 10.2683 33.7807 10.4588 34.0294 10.708C34.2781 10.9572 34.4722 11.2599 34.6116 11.6159C34.7511 11.972 34.8095 12.2138 34.8095 12.6695Z" fill="#E1DBE3"/>
<path fill-rule="evenodd" clip-rule="evenodd" d="M40.1197 13.5546L42.4511 17.3956H39.8096C39.6363 17.3956 39.4762 17.308 39.3899 17.1658L38.6552 15.9566L40.1197 13.5546ZM35.9768 7.19104C36.1502 7.19104 36.3103 7.27874 36.3966 7.42097L37.913 9.91913L36.4476 12.3226L33.3301 7.19104H35.9768Z" fill="url(#paint1_linear_4002_1042)"/>
<path fill-rule="evenodd" clip-rule="evenodd" d="M36.9337 17.5433L44.0007 6.00024H41.6052C41.2594 6.00024 40.9398 6.17473 40.7668 6.45801L33.7178 18.0002H36.0959C36.4413 18.0002 36.7606 17.8261 36.9337 17.5433Z" fill="url(#paint2_linear_4002_1042)"/>
</g>
<defs>
<linearGradient id="paint0_linear_4002_1042" x1="2" y1="12" x2="50" y2="12" gradientUnits="userSpaceOnUse">
<stop stop-color="#111111"/>
<stop offset="1" stop-color="#181D18"/>
</linearGradient>
<linearGradient id="paint1_linear_4002_1042" x1="163.286" y1="7.19104" x2="756.989" y2="1093.31" gradientUnits="userSpaceOnUse">
<stop offset="0.000863882" stop-color="#FF0000"/>
<stop offset="1" stop-color="#FF0033"/>
</linearGradient>
<linearGradient id="paint2_linear_4002_1042" x1="885.77" y1="6.00021" x2="212.367" y2="1209.41" gradientUnits="userSpaceOnUse">
<stop stop-color="#00FF99"/>
<stop offset="1" stop-color="#00FF55"/>
</linearGradient>
<clipPath id="clip0_4002_1042">
<rect width="36" height="12" fill="white" transform="translate(8 6)"/>
</clipPath>
</defs>
</svg>
