<svg width="150" height="150" viewBox="0 0 150 150" fill="none" xmlns="http://www.w3.org/2000/svg">
<rect y="149.031" width="149.031" height="149.031" transform="rotate(-90 0 149.031)" stroke="url(#paint0_linear_472_6784)"/>
<circle cx="111.773" cy="117.983" r="12.4192" transform="rotate(-90 111.773 117.983)" stroke="#150238" stroke-width="10.8668" stroke-linecap="round" stroke-linejoin="round"/>
<circle cx="37.2581" cy="31.0481" r="12.4192" transform="rotate(-90 37.2581 31.0481)" stroke="#150238" stroke-width="10.8668" stroke-linecap="round" stroke-linejoin="round"/>
<path d="M49.6768 25.6145C46.676 25.6145 44.2433 28.0471 44.2433 31.0479C44.2433 34.0487 46.676 36.4813 49.6768 36.4813L49.6768 25.6145ZM111.773 80.7248L107.931 84.5668C109.485 86.1207 111.822 86.5856 113.852 85.7446C115.882 84.9036 117.206 82.9224 117.206 80.7248H111.773ZM96.986 58.254C94.8642 56.1321 91.4239 56.1321 89.302 58.254C87.1802 60.3758 87.1802 63.8161 89.302 65.938L96.986 58.254ZM134.244 65.938C136.366 63.8161 136.366 60.3759 134.244 58.254C132.122 56.1321 128.682 56.1321 126.56 58.254L134.244 65.938ZM107.931 76.8829C105.809 79.0047 105.809 82.445 107.931 84.5669C110.053 86.6887 113.493 86.6887 115.615 84.5669L107.931 76.8829ZM49.6768 36.4813L80.7248 36.4813L80.7248 25.6145L49.6768 25.6145L49.6768 36.4813ZM80.7248 36.4813C94.8714 36.4813 106.339 47.9494 106.339 62.096L117.206 62.096C117.206 41.9478 100.873 25.6145 80.7248 25.6145L80.7248 36.4813ZM106.339 62.096L106.339 80.7248L117.206 80.7248L117.206 62.096L106.339 62.096ZM115.615 76.8828L96.986 58.254L89.302 65.938L107.931 84.5668L115.615 76.8828ZM126.56 58.254L107.931 76.8829L115.615 84.5669L134.244 65.938L126.56 58.254Z" fill="#150238"/>
<path d="M99.3538 123.416C102.355 123.416 104.787 120.983 104.787 117.983C104.787 114.982 102.355 112.549 99.3538 112.549V123.416ZM37.2577 68.3057H42.6911C42.6911 66.108 41.3673 64.1268 39.337 63.2858C37.3067 62.4448 34.9697 62.9097 33.4157 64.4637L37.2577 68.3057ZM14.7869 83.0925C12.665 85.2144 12.665 88.6546 14.7869 90.7765C16.9088 92.8984 20.349 92.8984 22.4709 90.7765L14.7869 83.0925ZM52.0445 90.7765C54.1664 92.8984 57.6066 92.8984 59.7285 90.7765C61.8504 88.6546 61.8504 85.2144 59.7285 83.0925L52.0445 90.7765ZM41.0997 64.4637C38.9778 62.3418 35.5375 62.3418 33.4157 64.4637C31.2938 66.5856 31.2938 70.0258 33.4157 72.1477L41.0997 64.4637ZM99.3538 112.549L68.3058 112.549V123.416L99.3538 123.416V112.549ZM68.3058 112.549C54.1592 112.549 42.6911 101.081 42.6911 86.9345L31.8243 86.9345C31.8243 107.083 48.1576 123.416 68.3058 123.416V112.549ZM42.6911 86.9345L42.6911 68.3057L31.8243 68.3057L31.8243 86.9345L42.6911 86.9345ZM33.4157 64.4637L14.7869 83.0925L22.4709 90.7765L41.0997 72.1477L33.4157 64.4637ZM59.7285 83.0925L41.0997 64.4637L33.4157 72.1477L52.0445 90.7765L59.7285 83.0925Z" fill="#150238"/>
<defs>
<linearGradient id="paint0_linear_472_6784" x1="0" y1="223.546" x2="149.031" y2="223.546" gradientUnits="userSpaceOnUse">
<stop stop-color="#9506F9"/>
<stop offset="0.26" stop-color="#B239FA"/>
<stop offset="0.495" stop-color="#DB39F8"/>
<stop offset="0.755" stop-color="#EF68DC"/>
<stop offset="1" stop-color="#F7DBB2"/>
</linearGradient>
</defs>
</svg>
