<svg width="273" height="54" viewBox="0 0 273 54" fill="none" xmlns="http://www.w3.org/2000/svg">
<g filter="url(#filter0_d_4002_3486)">
<path d="M62.16 38V12.8H71.16C72.528 12.8 73.764 13.142 74.868 13.826C75.984 14.51 76.866 15.428 77.514 16.58C78.162 17.732 78.486 18.998 78.486 20.378C78.486 21.794 78.15 23.078 77.478 24.23C76.818 25.37 75.93 26.282 74.814 26.966C73.698 27.638 72.48 27.974 71.16 27.974H66.552V38H62.16ZM66.552 23.582H70.692C71.316 23.582 71.886 23.426 72.402 23.114C72.918 22.802 73.326 22.382 73.626 21.854C73.938 21.326 74.094 20.738 74.094 20.09C74.094 19.43 73.938 18.836 73.626 18.308C73.326 17.78 72.918 17.36 72.402 17.048C71.886 16.736 71.316 16.58 70.692 16.58H66.552V23.582ZM80.3541 31.34V20H84.7461V30.188C84.7461 30.896 84.9201 31.544 85.2681 32.132C85.6161 32.708 86.0781 33.17 86.6541 33.518C87.2421 33.854 87.8841 34.022 88.5801 34.022C89.3001 34.022 89.9481 33.854 90.5241 33.518C91.1001 33.17 91.5621 32.708 91.9101 32.132C92.2581 31.544 92.4321 30.896 92.4321 30.188V20H96.8241L96.8421 38H92.4501L92.4321 36.362C91.8081 37.01 91.0701 37.526 90.2181 37.91C89.3661 38.282 88.4541 38.468 87.4821 38.468C86.1741 38.468 84.9801 38.15 83.9001 37.514C82.8201 36.866 81.9561 36.008 81.3081 34.94C80.6721 33.86 80.3541 32.66 80.3541 31.34ZM100.551 38V11H104.943V38H100.551ZM114.579 38.324C113.643 38.264 112.737 38.078 111.861 37.766C110.997 37.442 110.229 37.004 109.557 36.452C108.885 35.9 108.369 35.24 108.009 34.472L111.717 32.888C111.861 33.128 112.095 33.386 112.419 33.662C112.743 33.926 113.127 34.148 113.571 34.328C114.027 34.508 114.525 34.598 115.065 34.598C115.521 34.598 115.953 34.538 116.361 34.418C116.781 34.286 117.117 34.088 117.369 33.824C117.633 33.56 117.765 33.218 117.765 32.798C117.765 32.354 117.609 32.012 117.297 31.772C116.997 31.52 116.613 31.334 116.145 31.214C115.689 31.082 115.245 30.962 114.813 30.854C113.673 30.626 112.611 30.272 111.627 29.792C110.655 29.312 109.869 28.694 109.269 27.938C108.681 27.17 108.387 26.246 108.387 25.166C108.387 23.978 108.699 22.952 109.323 22.088C109.959 21.224 110.781 20.558 111.789 20.09C112.809 19.622 113.907 19.388 115.083 19.388C116.511 19.388 117.819 19.688 119.007 20.288C120.207 20.876 121.155 21.71 121.851 22.79L118.377 24.842C118.209 24.554 117.975 24.29 117.675 24.05C117.375 23.798 117.033 23.594 116.649 23.438C116.265 23.27 115.863 23.174 115.443 23.15C114.903 23.126 114.411 23.174 113.967 23.294C113.523 23.414 113.163 23.618 112.887 23.906C112.623 24.194 112.491 24.578 112.491 25.058C112.491 25.514 112.671 25.856 113.031 26.084C113.391 26.3 113.823 26.468 114.327 26.588C114.843 26.708 115.335 26.84 115.803 26.984C116.859 27.332 117.849 27.758 118.773 28.262C119.709 28.766 120.459 29.384 121.023 30.116C121.587 30.848 121.857 31.724 121.833 32.744C121.833 33.908 121.485 34.928 120.789 35.804C120.093 36.668 119.193 37.328 118.089 37.784C116.997 38.24 115.827 38.42 114.579 38.324ZM132.553 38.468C130.897 38.468 129.385 38.042 128.017 37.19C126.661 36.338 125.575 35.192 124.759 33.752C123.955 32.312 123.553 30.722 123.553 28.982C123.553 27.674 123.787 26.45 124.255 25.31C124.723 24.158 125.365 23.15 126.181 22.286C127.009 21.41 127.969 20.726 129.061 20.234C130.153 19.742 131.317 19.496 132.553 19.496C133.957 19.496 135.241 19.796 136.405 20.396C137.581 20.984 138.577 21.794 139.393 22.826C140.209 23.858 140.803 25.034 141.175 26.354C141.547 27.674 141.631 29.054 141.427 30.494H128.269C128.437 31.166 128.713 31.772 129.097 32.312C129.481 32.84 129.967 33.266 130.555 33.59C131.143 33.902 131.809 34.064 132.553 34.076C133.321 34.088 134.017 33.908 134.641 33.536C135.277 33.152 135.805 32.636 136.225 31.988L140.707 33.032C139.975 34.628 138.883 35.936 137.431 36.956C135.979 37.964 134.353 38.468 132.553 38.468ZM128.125 27.2H136.981C136.849 26.48 136.567 25.832 136.135 25.256C135.715 24.668 135.193 24.2 134.569 23.852C133.945 23.504 133.273 23.33 132.553 23.33C131.833 23.33 131.167 23.504 130.555 23.852C129.943 24.188 129.421 24.65 128.989 25.238C128.569 25.814 128.281 26.468 128.125 27.2Z" fill="url(#paint0_linear_4002_3486)"/>
<path d="M165.09 38.468C163.386 38.468 161.784 38.132 160.284 37.46C158.784 36.776 157.464 35.834 156.324 34.634C155.196 33.434 154.308 32.048 153.66 30.476C153.024 28.892 152.706 27.2 152.706 25.4C152.706 23.588 153.024 21.896 153.66 20.324C154.308 18.74 155.196 17.354 156.324 16.166C157.464 14.966 158.784 14.03 160.284 13.358C161.784 12.674 163.386 12.332 165.09 12.332C167.13 12.332 169.008 12.806 170.724 13.754C172.44 14.69 173.862 15.944 174.99 17.516L171.066 19.622C170.358 18.746 169.476 18.044 168.42 17.516C167.376 16.988 166.266 16.724 165.09 16.724C163.986 16.724 162.948 16.952 161.976 17.408C161.004 17.852 160.152 18.476 159.42 19.28C158.688 20.072 158.118 20.996 157.71 22.052C157.302 23.096 157.098 24.212 157.098 25.4C157.098 26.6 157.302 27.722 157.71 28.766C158.13 29.81 158.706 30.734 159.438 31.538C160.17 32.33 161.016 32.954 161.976 33.41C162.948 33.854 163.986 34.076 165.09 34.076C166.29 34.076 167.406 33.812 168.438 33.284C169.482 32.744 170.358 32.036 171.066 31.16L174.99 33.284C173.862 34.844 172.44 36.098 170.724 37.046C169.008 37.994 167.13 38.468 165.09 38.468ZM191.009 20H195.401V38H191.009L190.811 35.768C190.319 36.572 189.665 37.226 188.849 37.73C188.045 38.222 187.091 38.468 185.987 38.468C184.655 38.468 183.407 38.216 182.243 37.712C181.079 37.208 180.053 36.512 179.165 35.624C178.289 34.736 177.599 33.71 177.095 32.546C176.603 31.382 176.357 30.134 176.357 28.802C176.357 27.518 176.591 26.312 177.059 25.184C177.539 24.056 178.205 23.066 179.057 22.214C179.909 21.362 180.893 20.696 182.009 20.216C183.125 19.736 184.325 19.496 185.609 19.496C186.797 19.496 187.859 19.76 188.795 20.288C189.743 20.816 190.547 21.488 191.207 22.304L191.009 20ZM185.879 34.238C186.815 34.238 187.643 34.004 188.363 33.536C189.083 33.068 189.647 32.438 190.055 31.646C190.463 30.842 190.667 29.96 190.667 29C190.667 28.028 190.463 27.146 190.055 26.354C189.647 25.55 189.077 24.914 188.345 24.446C187.625 23.978 186.803 23.744 185.879 23.744C184.955 23.744 184.109 23.984 183.341 24.464C182.585 24.932 181.979 25.562 181.523 26.354C181.079 27.146 180.857 28.028 180.857 29C180.857 29.972 181.085 30.854 181.541 31.646C181.997 32.438 182.603 33.068 183.359 33.536C184.127 34.004 184.967 34.238 185.879 34.238ZM203.38 47H198.988V20H203.38V22.286C203.968 21.47 204.688 20.81 205.54 20.306C206.404 19.79 207.412 19.532 208.564 19.532C209.884 19.532 211.114 19.778 212.254 20.27C213.394 20.762 214.396 21.446 215.26 22.322C216.136 23.186 216.814 24.188 217.294 25.328C217.786 26.468 218.032 27.692 218.032 29C218.032 30.308 217.786 31.538 217.294 32.69C216.814 33.842 216.136 34.856 215.26 35.732C214.396 36.596 213.394 37.274 212.254 37.766C211.114 38.258 209.884 38.504 208.564 38.504C207.412 38.504 206.404 38.252 205.54 37.748C204.688 37.232 203.968 36.566 203.38 35.75V47ZM208.51 23.762C207.598 23.762 206.782 24.002 206.062 24.482C205.342 24.95 204.778 25.58 204.37 26.372C203.962 27.164 203.758 28.04 203.758 29C203.758 29.96 203.962 30.842 204.37 31.646C204.778 32.438 205.342 33.074 206.062 33.554C206.782 34.022 207.598 34.256 208.51 34.256C209.434 34.256 210.28 34.022 211.048 33.554C211.816 33.086 212.428 32.456 212.884 31.664C213.34 30.86 213.568 29.972 213.568 29C213.568 28.04 213.34 27.164 212.884 26.372C212.428 25.58 211.816 24.95 211.048 24.482C210.292 24.002 209.446 23.762 208.51 23.762ZM220.469 20H224.861V38H220.469V20ZM222.701 17.678C222.053 17.678 221.507 17.468 221.063 17.048C220.619 16.616 220.397 16.076 220.397 15.428C220.397 14.792 220.619 14.258 221.063 13.826C221.507 13.394 222.047 13.178 222.683 13.178C223.319 13.178 223.853 13.394 224.285 13.826C224.729 14.258 224.951 14.792 224.951 15.428C224.951 16.076 224.735 16.616 224.303 17.048C223.871 17.468 223.337 17.678 222.701 17.678ZM238.835 24.392H235.343V38H230.951V24.392H228.287V20H230.951V14.348H235.343V20H238.835V24.392ZM255.24 20H259.632V38H255.24L255.042 35.768C254.55 36.572 253.896 37.226 253.08 37.73C252.276 38.222 251.322 38.468 250.218 38.468C248.886 38.468 247.638 38.216 246.474 37.712C245.31 37.208 244.284 36.512 243.396 35.624C242.52 34.736 241.83 33.71 241.326 32.546C240.834 31.382 240.588 30.134 240.588 28.802C240.588 27.518 240.822 26.312 241.29 25.184C241.77 24.056 242.436 23.066 243.288 22.214C244.14 21.362 245.124 20.696 246.24 20.216C247.356 19.736 248.556 19.496 249.84 19.496C251.028 19.496 252.09 19.76 253.026 20.288C253.974 20.816 254.778 21.488 255.438 22.304L255.24 20ZM250.11 34.238C251.046 34.238 251.874 34.004 252.594 33.536C253.314 33.068 253.878 32.438 254.286 31.646C254.694 30.842 254.898 29.96 254.898 29C254.898 28.028 254.694 27.146 254.286 26.354C253.878 25.55 253.308 24.914 252.576 24.446C251.856 23.978 251.034 23.744 250.11 23.744C249.186 23.744 248.34 23.984 247.572 24.464C246.816 24.932 246.21 25.562 245.754 26.354C245.31 27.146 245.088 28.028 245.088 29C245.088 29.972 245.316 30.854 245.772 31.646C246.228 32.438 246.834 33.068 247.59 33.536C248.358 34.004 249.198 34.238 250.11 34.238ZM263.324 38V11H267.716V38H263.324Z" fill="white"/>
</g>
<path d="M43.8828 24.503L43.7179 15.5967L13.0405 33.7804V44.7484L22.5654 50.0675L43.8828 37.6976L43.6354 28.7912L21.6995 41.7384V37.3677L43.8828 24.503Z" fill="url(#paint1_linear_4002_3486)"/>
<path d="M8.46318 42.0681L1 37.986L1.1237 27.1005L25.9872 12.0505L22.3175 9.82387L1.32986 21.534L1.4948 12.9988L22.4824 1L41.8207 11.9268L8.33948 31.43L8.46318 42.0681Z" fill="url(#paint2_linear_4002_3486)" stroke="url(#paint3_linear_4002_3486)" stroke-width="0.1"/>
<defs>
<filter id="filter0_d_4002_3486" x="57.5487" y="8.69429" width="214.779" height="45.2228" filterUnits="userSpaceOnUse" color-interpolation-filters="sRGB">
<feFlood flood-opacity="0" result="BackgroundImageFix"/>
<feColorMatrix in="SourceAlpha" type="matrix" values="0 0 0 0 0 0 0 0 0 0 0 0 0 0 0 0 0 0 127 0" result="hardAlpha"/>
<feOffset dy="2.30571"/>
<feGaussianBlur stdDeviation="2.30571"/>
<feComposite in2="hardAlpha" operator="out"/>
<feColorMatrix type="matrix" values="0 0 0 0 0 0 0 0 0 0 0 0 0 0 0 0 0 0 0.25 0"/>
<feBlend mode="normal" in2="BackgroundImageFix" result="effect1_dropShadow_4002_3486"/>
<feBlend mode="normal" in="SourceGraphic" in2="effect1_dropShadow_4002_3486" result="shape"/>
</filter>
<linearGradient id="paint0_linear_4002_3486" x1="43.3403" y1="34.9337" x2="158.424" y2="30.7722" gradientUnits="userSpaceOnUse">
<stop stop-color="#9506F9"/>
<stop offset="0.26" stop-color="#B239FA"/>
<stop offset="0.495" stop-color="#DB39F8"/>
<stop offset="0.755" stop-color="#EF68DC"/>
<stop offset="1" stop-color="#F7DBB2"/>
</linearGradient>
<linearGradient id="paint1_linear_4002_3486" x1="13.0405" y1="32.8321" x2="43.8828" y2="32.8321" gradientUnits="userSpaceOnUse">
<stop stop-color="#9506F9"/>
<stop offset="0.26" stop-color="#B239FA"/>
<stop offset="0.495" stop-color="#DB39F8"/>
<stop offset="0.755" stop-color="#EF68DC"/>
<stop offset="1" stop-color="#F7DBB2"/>
</linearGradient>
<linearGradient id="paint2_linear_4002_3486" x1="41.8207" y1="12.672" x2="-2.90841" y2="42.9802" gradientUnits="userSpaceOnUse">
<stop stop-color="#00EAFF"/>
<stop offset="0.25" stop-color="#0080FF"/>
<stop offset="0.5" stop-color="#8000FF"/>
<stop offset="0.75" stop-color="#E619E6"/>
<stop offset="1" stop-color="#FF0000"/>
</linearGradient>
<linearGradient id="paint3_linear_4002_3486" x1="1" y1="21.534" x2="41.8207" y2="21.534" gradientUnits="userSpaceOnUse">
<stop stop-color="#9506F9"/>
<stop offset="0.26" stop-color="#B239FA"/>
<stop offset="0.495" stop-color="#DB39F8"/>
<stop offset="0.755" stop-color="#3D44FF"/>
<stop offset="1" stop-color="#01EAFF"/>
</linearGradient>
</defs>
</svg>
