<svg width="36" height="36" viewBox="0 0 36 36" fill="none" xmlns="http://www.w3.org/2000/svg">
<g id="Wallet">
<path id="Vector" d="M5.96875 9.25V26.75C5.96875 27.3302 6.19922 27.8866 6.60945 28.2968C7.01969 28.707 7.57609 28.9375 8.15625 28.9375H30.0312C30.3213 28.9375 30.5995 28.8223 30.8046 28.6171C31.0098 28.412 31.125 28.1338 31.125 27.8438V12.5312C31.125 12.2412 31.0098 11.963 30.8046 11.7579C30.5995 11.5527 30.3213 11.4375 30.0312 11.4375H8.15625C7.57609 11.4375 7.01969 11.207 6.60945 10.7968C6.19922 10.3866 5.96875 9.83016 5.96875 9.25ZM5.96875 9.25C5.96875 8.66984 6.19922 8.11344 6.60945 7.7032C7.01969 7.29297 7.57609 7.0625 8.15625 7.0625H26.75" stroke="white" stroke-width="1.75" stroke-linecap="round" stroke-linejoin="round"/>
<path id="Vector_2" d="M25.1094 21.8281C26.0155 21.8281 26.75 21.0936 26.75 20.1875C26.75 19.2814 26.0155 18.5469 25.1094 18.5469C24.2033 18.5469 23.4688 19.2814 23.4688 20.1875C23.4688 21.0936 24.2033 21.8281 25.1094 21.8281Z" fill="white"/>
</g>
</svg>
