<svg width="35" height="35" viewBox="0 0 35 35" fill="none" xmlns="http://www.w3.org/2000/svg">
<g id="MetaMask_Fox 1">
<path id="Vector" d="M30.1113 3.8999L19.1807 12.0182L21.202 7.22853L30.1113 3.8999Z" fill="#E2761B" stroke="#E2761B" stroke-width="0.573771" stroke-linecap="round" stroke-linejoin="round"/>
<path id="Vector_2" d="M4.87712 3.8999L15.7199 12.0951L13.7974 7.22853L4.87712 3.8999ZM26.1781 22.7182L23.2669 27.1783L29.4958 28.8921L31.2864 22.817L26.1781 22.7182ZM3.72363 22.817L5.50329 28.8921L11.7321 27.1783L8.82093 22.7182L3.72363 22.817Z" fill="#E4761B" stroke="#E4761B" stroke-width="0.573771" stroke-linecap="round" stroke-linejoin="round"/>
<path id="Vector_3" d="M11.3812 15.1821L9.64551 17.8077L15.8304 18.0823L15.6107 11.436L11.3812 15.1821ZM23.6082 15.1821L19.3238 11.3591L19.181 18.0823L25.3549 17.8077L23.6082 15.1821ZM11.7328 27.1783L15.4459 25.3657L12.2381 22.861L11.7328 27.1783ZM19.5435 25.3657L23.2676 27.1783L22.7513 22.861L19.5435 25.3657Z" fill="#E4761B" stroke="#E4761B" stroke-width="0.573771" stroke-linecap="round" stroke-linejoin="round"/>
<path id="Vector_4" d="M23.2673 27.1783L19.5432 25.3657L19.8398 27.7935L19.8068 28.8152L23.2673 27.1783ZM11.7324 27.1783L15.1929 28.8152L15.1709 27.7935L15.4455 25.3657L11.7324 27.1783Z" fill="#D7C1B3" stroke="#D7C1B3" stroke-width="0.573771" stroke-linecap="round" stroke-linejoin="round"/>
<path id="Vector_5" d="M15.2483 21.2571L12.1504 20.3453L14.3365 19.3456L15.2483 21.2571ZM19.7414 21.2571L20.6532 19.3456L22.8503 20.3453L19.7414 21.2571Z" fill="#233447" stroke="#233447" stroke-width="0.573771" stroke-linecap="round" stroke-linejoin="round"/>
<path id="Vector_6" d="M11.7325 27.1783L12.2598 22.7182L8.82129 22.817L11.7325 27.1783ZM22.74 22.7182L23.2673 27.1783L26.1785 22.817L22.74 22.7182ZM25.3546 17.8076L19.1807 18.0823L19.7519 21.2571L20.6637 19.3456L22.8608 20.3453L25.3546 17.8076ZM12.1499 20.3453L14.347 19.3456L15.2478 21.2571L15.8301 18.0823L9.64521 17.8076L12.1499 20.3453Z" fill="#CD6116" stroke="#CD6116" stroke-width="0.573771" stroke-linecap="round" stroke-linejoin="round"/>
<path id="Vector_7" d="M9.64551 17.8076L12.2381 22.861L12.1502 20.3453L9.64551 17.8076ZM22.8611 20.3453L22.7513 22.861L25.3549 17.8076L22.8611 20.3453ZM15.8304 18.0823L15.2481 21.2571L15.9732 25.0032L16.138 20.0706L15.8304 18.0823ZM19.181 18.0823L18.8844 20.0597L19.0162 25.0032L19.7522 21.2571L19.181 18.0823Z" fill="#E4751F" stroke="#E4751F" stroke-width="0.573771" stroke-linecap="round" stroke-linejoin="round"/>
<path id="Vector_8" d="M19.7524 21.257L19.0164 25.0031L19.5437 25.3656L22.7515 22.8609L22.8613 20.3452L19.7524 21.257ZM12.1504 20.3452L12.2383 22.8609L15.4461 25.3656L15.9734 25.0031L15.2483 21.257L12.1504 20.3452Z" fill="#F6851B" stroke="#F6851B" stroke-width="0.573771" stroke-linecap="round" stroke-linejoin="round"/>
<path id="Vector_9" d="M19.8068 28.8151L19.8398 27.7934L19.5651 27.5517H15.4236L15.1709 27.7934L15.1929 28.8151L11.7324 27.1782L12.9408 28.1669L15.3906 29.8697H19.5981L22.0589 28.1669L23.2673 27.1782L19.8068 28.8151Z" fill="#C0AD9E" stroke="#C0AD9E" stroke-width="0.573771" stroke-linecap="round" stroke-linejoin="round"/>
<path id="Vector_10" d="M19.5432 25.3657L19.0158 25.0032H15.9728L15.4455 25.3657L15.1709 27.7935L15.4236 27.5518H19.5651L19.8398 27.7935L19.5432 25.3657Z" fill="#161616" stroke="#161616" stroke-width="0.573771" stroke-linecap="round" stroke-linejoin="round"/>
<path id="Vector_11" d="M30.5726 12.5455L31.5063 8.06343L30.1112 3.8999L19.5431 11.7436L23.6077 15.1821L29.3532 16.8629L30.6275 15.3798L30.0782 14.9843L30.9571 14.1824L30.276 13.6551L31.1548 12.985L30.5726 12.5455ZM3.49316 8.06343L4.42694 12.5455L3.83372 12.985L4.71256 13.6551L4.04244 14.1824L4.92129 14.9843L4.37201 15.3798L5.63535 16.8629L11.3808 15.1821L15.4455 11.7436L4.87735 3.8999L3.49316 8.06343Z" fill="#763D16" stroke="#763D16" stroke-width="0.573771" stroke-linecap="round" stroke-linejoin="round"/>
<path id="Vector_12" d="M29.353 16.8629L23.6075 15.1821L25.3542 17.8076L22.7506 22.861L26.1781 22.817H31.2864L29.353 16.8629ZM11.3806 15.1821L5.63512 16.8629L3.72363 22.817H8.82093L12.2374 22.861L9.64485 17.8076L11.3806 15.1821ZM19.1803 18.0823L19.5428 11.7436L21.2127 7.22852H13.7974L15.4452 11.7436L15.8297 18.0823L15.9615 20.0816L15.9725 25.0032H19.0155L19.0375 20.0816L19.1803 18.0823Z" fill="#F6851B" stroke="#F6851B" stroke-width="0.573771" stroke-linecap="round" stroke-linejoin="round"/>
</g>
</svg>
