<svg width="60" height="48" viewBox="0 0 60 48" fill="none" xmlns="http://www.w3.org/2000/svg">
<path d="M45.7059 25.8061C46.7941 23.0719 41.3824 15.3967 36.2059 12.2343C32.9412 9.76372 29.5588 10.0931 28.8529 11.1802C27.3529 13.552 33.8529 15.5943 38.2059 17.9331C37.2647 18.3943 36.3824 19.2178 35.8824 20.239C34.2647 18.2625 30.7059 16.5496 26.5294 17.9331C23.7059 18.8555 21.3824 21.0625 20.4706 24.3567C20.2647 24.2578 20 24.1919 19.7647 24.1919C18.7941 24.1919 18 25.0814 18 26.1684C18 27.2555 18.7941 28.1449 19.7647 28.1449C19.9412 28.1449 20.5 28.0131 20.5 28.0131L29.5588 28.079C25.9412 34.5355 23.0588 35.4578 23.0588 36.5778C23.0588 37.6978 25.7941 37.4014 26.8235 36.9731C31.7647 34.9966 37.0588 28.7708 37.9706 26.9919C41.7941 27.5519 45 27.5849 45.7059 25.8061Z" fill="url(#paint0_linear_40_4992)"/>
<path fill-rule="evenodd" clip-rule="evenodd" d="M36.324 17.9331C36.5299 17.8342 36.5005 17.5048 36.4416 17.2413C36.324 16.6484 34.1181 14.2107 32.0593 13.1237C29.2358 11.6413 27.1769 11.7072 26.8828 12.399C27.4416 13.7166 30.1181 14.9354 32.8828 16.2531C34.0299 16.7801 35.2358 17.3401 36.324 17.9331Z" fill="url(#paint1_linear_40_4992)"/>
<path fill-rule="evenodd" clip-rule="evenodd" d="M32.7355 31.1755C32.1767 30.9449 31.5296 30.7143 30.7943 30.5167C31.5591 28.9684 31.7355 26.6296 31.0002 25.1802C29.9708 23.1378 28.6767 22.0508 25.6473 22.0508C24.0002 22.0508 19.5296 22.6767 19.4414 26.8602C19.4414 27.2884 19.4414 27.6837 19.4708 28.079H27.6473C26.5591 30.0225 25.5296 31.472 24.6179 32.559C25.7061 32.8555 26.5885 33.119 27.412 33.3825C28.1767 33.6131 28.912 33.8108 29.6473 34.0414C30.7649 33.119 31.8238 32.1308 32.7355 31.1755Z" fill="url(#paint2_linear_40_4992)"/>
<path d="M18.4413 27.5849C18.7648 30.7472 20.3825 31.999 23.6766 32.3613C26.9707 32.7237 28.8531 32.4931 31.3531 32.7237C33.4413 32.9213 35.3237 34.1402 36.0001 33.7119C36.6178 33.3496 36.2648 31.999 35.4413 31.1425C34.3531 30.0225 32.8531 29.2649 30.2354 28.9684C30.7648 27.3543 30.6178 25.0813 29.7942 23.8625C28.6178 22.0837 26.4413 21.2931 23.6766 21.6225C20.7942 22.0178 18.0295 23.6319 18.4413 27.5849Z" fill="url(#paint3_linear_40_4992)"/>
<defs>
<linearGradient id="paint0_linear_40_4992" x1="26.2302" y1="23.2551" x2="45.804" y2="28.2111" gradientUnits="userSpaceOnUse">
<stop stop-color="#8797FF"/>
<stop offset="1" stop-color="#AAA8FF"/>
</linearGradient>
<linearGradient id="paint1_linear_40_4992" x1="39.6352" y1="23.7385" x2="24.151" y2="9.87947" gradientUnits="userSpaceOnUse">
<stop stop-color="#3B22A0"/>
<stop offset="1" stop-color="#5156D8" stop-opacity="0"/>
</linearGradient>
<linearGradient id="paint2_linear_40_4992" x1="33.1193" y1="31.7399" x2="19.0481" y2="24.5168" gradientUnits="userSpaceOnUse">
<stop stop-color="#3B1E8F"/>
<stop offset="1" stop-color="#6A6FFB" stop-opacity="0"/>
</linearGradient>
<linearGradient id="paint3_linear_40_4992" x1="23.3873" y1="25.0308" x2="33.7122" y2="36.7442" gradientUnits="userSpaceOnUse">
<stop stop-color="#8898FF"/>
<stop offset="0.9839" stop-color="#5F47F1"/>
</linearGradient>
</defs>
</svg>
