<svg width="30" height="20" viewBox="0 0 30 20" fill="none" xmlns="http://www.w3.org/2000/svg">
<g id="Group">
<path id="Vector" d="M6.14521 4.41214C11.0329 -0.361664 18.9671 -0.361664 23.8548 4.41214L24.4432 4.99107C24.69 5.22834 24.69 5.61745 24.4432 5.85472L22.4312 7.81929C22.3078 7.94267 22.1085 7.94267 21.9851 7.81929L21.1784 7.03156C17.7618 3.70034 12.2382 3.70034 8.82158 7.03156L7.95792 7.87623C7.83455 7.99961 7.63524 7.99961 7.51186 7.87623L5.49984 5.91166C5.25308 5.6744 5.25308 5.28528 5.49984 5.04801L6.14521 4.41214ZM28.0212 8.47414L29.8149 10.2204C30.0617 10.4577 30.0617 10.8468 29.8149 11.0841L21.7384 18.9708C21.4916 19.2081 21.093 19.2081 20.8557 18.9708L15.1234 13.3713C15.0664 13.3144 14.962 13.3144 14.9051 13.3713L9.17273 18.9708C8.92597 19.2081 8.52736 19.2081 8.2901 18.9708L0.185068 11.0841C-0.0616893 10.8468 -0.0616893 10.4577 0.185068 10.2204L1.9788 8.47414C2.22556 8.23688 2.62417 8.23688 2.86144 8.47414L8.5938 14.0736C8.65074 14.1306 8.75514 14.1306 8.81208 14.0736L14.5444 8.47414C14.7912 8.23688 15.1898 8.23688 15.4271 8.47414L21.1594 14.0736C21.2164 14.1306 21.3208 14.1306 21.3777 14.0736L27.1101 8.47414C27.3758 8.23688 27.7744 8.23688 28.0212 8.47414Z" fill="white"/>
</g>
</svg>
